# xmcd
#
# Track frame offsets:
#	150
#	23502
#	39416
#	63963
#	84100
#	106724
#	128363
#	148153
#	175537
#	197481
#	215361
#	237399
#	254363
#	274253
#	288603
#	310861
#
# Disc length: 4430 seconds
#
# Revision: 0
# Processed by: cddbd v1.5.2PL0 Copyright (c) Steve Scherf et al.
# Submitted via: EasyCDDAExtractor 12.1.0.1
#
DISCID=d2114c10
DTITLE=Various Artist - 팝101 CD4
DYEAR=1900
DGENRE=POP
TTITLE0=Alice Cooper - You And Me
TTITLE1=Mr. Big - To Be With You
TTITLE2=Ambrosia - Biggest Part Of Me
TTITLE3=Yes - Owner Of A Lonely Heart
TTITLE4=Bad Company - Ready For Love
TTITLE5=Damn Yankees - High Enough
TTITLE6=Dokken - Alone Again
TTITLE7=Lucifer's Friend - My Love
TTITLE8=Foreigner - Waiting For A Girl Like You
TTITLE9=The Cars - Drive
TTITLE10=Rialto - Monday Morning 5.19
TTITLE11=The Lemonheads - Mrs. Robinson
TTITLE12=Big Mountain - Baby I Love Your Way
TTITLE13=Sixpence None The Richer - Kiss Me
TTITLE14=Karoline Kruger - You Call It Love
TTITLE15=Cook Da Books - Your Eyes
EXTD=
EXTT0=
EXTT1=
EXTT2=
EXTT3=
EXTT4=
EXTT5=
EXTT6=
EXTT7=
EXTT8=
EXTT9=
EXTT10=
EXTT11=
EXTT12=
EXTT13=
EXTT14=
EXTT15=
PLAYORDER=
